<?xml version="1.0" encoding="utf-8"?>
<!-- Generator: Adobe Illustrator 18.1.1, SVG Export Plug-In . SVG Version: 6.00 Build 0)  -->
<!DOCTYPE svg PUBLIC "-//W3C//DTD SVG 1.1//EN" "http://www.w3.org/Graphics/SVG/1.1/DTD/svg11.dtd">
<svg version="1.1" id="Layer_1" xmlns="http://www.w3.org/2000/svg" xmlns:xlink="http://www.w3.org/1999/xlink" x="0px" y="0px"
	 viewBox="0 0 279 270" enable-background="new 0 0 279 270" xml:space="preserve">
<polygon fill="none" stroke="#000000" stroke-width="10" stroke-miterlimit="10" points="216.5,35.5 153.8,34.6 91,33.7 121.6,88.4 
	152.2,143.2 184.3,89.4 "/>
<polygon fill="none" stroke="#000000" stroke-width="10" stroke-miterlimit="10" points="99.6,19.2 130.4,73.9 161.2,128.5 
	98.5,127.9 35.8,127.2 67.7,73.2 "/>
<polygon fill="none" stroke="#000000" stroke-width="10" stroke-miterlimit="10" points="170.6,112.8 107.9,111.8 45.2,110.9 
	75.7,165.7 106.3,220.5 138.4,166.6 "/>
<polygon fill="none" stroke="#000000" stroke-width="10" stroke-miterlimit="10" points="166.9,64 197.7,118.6 228.5,173.3 
	165.8,172.6 103.1,172 135,118 "/>
<polygon fill="none" stroke="#000000" stroke-width="10" stroke-miterlimit="10" points="237.1,158.8 174.4,157.9 111.7,157 
	142.2,211.7 172.8,266.5 205,212.7 "/>
<polygon fill="none" stroke="#000000" stroke-width="10" stroke-miterlimit="10" points="121,141.2 151.8,195.9 182.6,250.5 
	119.9,249.9 57.2,249.2 89.1,195.2 "/>
</svg>
