<?xml version="1.0" encoding="utf-8"?>
<!-- Generator: Adobe Illustrator 18.1.1, SVG Export Plug-In . SVG Version: 6.00 Build 0)  -->
<!DOCTYPE svg PUBLIC "-//W3C//DTD SVG 1.1//EN" "http://www.w3.org/Graphics/SVG/1.1/DTD/svg11.dtd">
<svg version="1.1" id="Layer_1" xmlns="http://www.w3.org/2000/svg" xmlns:xlink="http://www.w3.org/1999/xlink" x="0px" y="0px"
	 viewBox="0 0 279 270" enable-background="new 0 0 279 270" xml:space="preserve">
<polygon fill="none" stroke="#000000" stroke-width="10" stroke-miterlimit="10" points="138.9,27.7 182,52.4 225.1,77.2 
	182.1,102.1 139.2,127 139.1,77.4 "/>
<polygon fill="none" stroke="#000000" stroke-width="10" stroke-miterlimit="10" points="225.1,63.8 182,88.6 138.9,113.3 
	181.9,138.3 224.9,163.2 225,113.5 "/>
<polygon fill="none" stroke="#000000" stroke-width="10" stroke-miterlimit="10" points="138.9,98.8 182,123.6 225.1,148.3 
	182.1,173.2 139.2,198.2 139.1,148.5 "/>
<polygon fill="none" stroke="#000000" stroke-width="10" stroke-miterlimit="10" points="190.1,26 159,80.2 127.9,134.3 96.6,80.3 
	65.2,26.3 127.7,26.1 "/>
<polygon fill="none" stroke="#000000" stroke-width="10" stroke-miterlimit="10" points="65.2,239.8 96.3,185.6 127.4,131.4 
	158.8,185.5 190.1,239.5 127.7,239.6 "/>
<polygon fill="none" stroke="#000000" stroke-width="10" stroke-miterlimit="10" points="101.6,239.8 132.7,185.6 163.8,131.4 
	195.2,185.5 226.5,239.5 164.1,239.6 "/>
<polygon fill="none" stroke="#000000" stroke-width="10" stroke-miterlimit="10" points="190.1,59.8 159,114 127.9,168.2 
	96.6,114.2 65.2,60.1 127.7,60 "/>
</svg>
