<?xml version="1.0" encoding="utf-8"?>
<!-- Generator: Adobe Illustrator 18.1.1, SVG Export Plug-In . SVG Version: 6.00 Build 0)  -->
<!DOCTYPE svg PUBLIC "-//W3C//DTD SVG 1.1//EN" "http://www.w3.org/Graphics/SVG/1.1/DTD/svg11.dtd">
<svg version="1.1" id="Layer_1" xmlns="http://www.w3.org/2000/svg" xmlns:xlink="http://www.w3.org/1999/xlink" x="0px" y="0px"
	 viewBox="0 0 279 270" enable-background="new 0 0 279 270" xml:space="preserve">
<polygon fill="none" stroke="#000000" stroke-width="10" stroke-miterlimit="10" points="52.4,32.3 83.5,86.4 114.6,140.6 
	145.9,86.6 177.3,32.6 114.8,32.4 "/>
<polygon fill="none" stroke="#000000" stroke-width="10" stroke-miterlimit="10" points="177.3,246 146.2,191.9 115.1,137.7 
	83.7,191.7 52.4,245.8 114.8,245.9 "/>
<polygon fill="none" stroke="#000000" stroke-width="10" stroke-miterlimit="10" points="52.4,66.1 83.5,120.3 114.6,174.4 
	145.9,120.4 177.3,66.4 114.8,66.3 "/>
<polygon fill="none" stroke="#000000" stroke-width="10" stroke-miterlimit="10" points="52.4,215.8 83.5,161.7 114.6,107.5 
	145.9,161.5 177.3,215.5 114.8,215.7 "/>
<polygon fill="none" stroke="#000000" stroke-width="10" stroke-miterlimit="10" points="134.1,245.9 165.2,191.7 196.3,137.6 
	227.6,191.6 259,245.6 196.5,245.8 "/>
</svg>
