<?xml version="1.0" encoding="utf-8"?>
<!-- Generator: Adobe Illustrator 18.1.1, SVG Export Plug-In . SVG Version: 6.00 Build 0)  -->
<!DOCTYPE svg PUBLIC "-//W3C//DTD SVG 1.1//EN" "http://www.w3.org/Graphics/SVG/1.1/DTD/svg11.dtd">
<svg version="1.1" id="Layer_1" xmlns="http://www.w3.org/2000/svg" xmlns:xlink="http://www.w3.org/1999/xlink" x="0px" y="0px"
	 viewBox="0 0 279 270" enable-background="new 0 0 279 270" xml:space="preserve">
<polygon fill="none" stroke="#000000" stroke-width="10" stroke-miterlimit="10" points="223.3,24.5 192.2,78.6 161,132.8 
	129.7,78.8 98.3,24.8 160.8,24.6 "/>
<polygon fill="none" stroke="#000000" stroke-width="10" stroke-miterlimit="10" points="98.3,238.2 129.4,184.1 160.6,129.9 
	191.9,183.9 223.3,238 160.8,238.1 "/>
<polygon fill="none" stroke="#000000" stroke-width="10" stroke-miterlimit="10" points="223.3,58.3 192.2,112.5 161,166.6 
	129.7,112.6 98.3,58.6 160.8,58.5 "/>
<polygon fill="none" stroke="#000000" stroke-width="10" stroke-miterlimit="10" points="223.3,208 192.2,153.9 161,99.7 
	129.7,153.7 98.3,207.7 160.8,207.9 "/>
<polygon fill="none" stroke="#000000" stroke-width="10" stroke-miterlimit="10" points="141.6,238.1 110.5,183.9 79.4,129.8 
	48,183.8 16.7,237.8 79.1,238 "/>
</svg>
