<?xml version="1.0" encoding="utf-8"?>
<!-- Generator: Adobe Illustrator 18.1.1, SVG Export Plug-In . SVG Version: 6.00 Build 0)  -->
<!DOCTYPE svg PUBLIC "-//W3C//DTD SVG 1.1//EN" "http://www.w3.org/Graphics/SVG/1.1/DTD/svg11.dtd">
<svg version="1.1" id="Layer_1" xmlns="http://www.w3.org/2000/svg" xmlns:xlink="http://www.w3.org/1999/xlink" x="0px" y="0px"
	 viewBox="0 0 279 270" enable-background="new 0 0 279 270" xml:space="preserve">
<polygon fill="none" stroke="#000000" stroke-width="10" stroke-miterlimit="10" points="134.2,32.7 188.3,63.8 242.5,94.9 
	188.5,126.3 134.5,157.6 134.3,95.2 "/>
<polygon fill="none" stroke="#000000" stroke-width="10" stroke-miterlimit="10" points="134.2,121.1 188.3,152.2 242.5,183.3 
	188.5,214.7 134.5,246 134.3,183.6 "/>
<polygon fill="none" stroke="#000000" stroke-width="10" stroke-miterlimit="10" points="242.5,77.9 188.3,109 134.2,140.1 
	188.2,171.4 242.2,202.8 242.3,140.3 "/>
<polygon fill="none" stroke="#000000" stroke-width="10" stroke-miterlimit="10" points="144.7,32.7 90.5,63.8 36.4,94.9 
	90.4,126.3 144.4,157.6 144.6,95.2 "/>
<polygon fill="none" stroke="#000000" stroke-width="10" stroke-miterlimit="10" points="144.7,121.1 90.5,152.2 36.4,183.3 
	90.4,214.7 144.4,246 144.6,183.6 "/>
<polygon fill="none" stroke="#000000" stroke-width="10" stroke-miterlimit="10" points="36.4,77.9 90.5,109 144.7,140.1 
	90.7,171.4 36.7,202.8 36.5,140.3 "/>
</svg>
