<?xml version="1.0" encoding="utf-8"?>
<!-- Generator: Adobe Illustrator 18.1.1, SVG Export Plug-In . SVG Version: 6.00 Build 0)  -->
<!DOCTYPE svg PUBLIC "-//W3C//DTD SVG 1.1//EN" "http://www.w3.org/Graphics/SVG/1.1/DTD/svg11.dtd">
<svg version="1.1" id="Layer_1" xmlns="http://www.w3.org/2000/svg" xmlns:xlink="http://www.w3.org/1999/xlink" x="0px" y="0px"
	 viewBox="0 0 1595.8 1307.8" enable-background="new 0 0 1595.8 1307.8" xml:space="preserve">
<polygon fill="none" stroke="#000000" stroke-miterlimit="10" points="158.2,64.9 211.5,157.3 264.9,249.7 158.2,249.7 51.4,249.7 
	104.8,157.3 "/>
<polygon fill="none" stroke="#000000" stroke-miterlimit="10" points="158.2,165.5 182.7,207.9 207.2,250.4 158.2,250.4 
	109.1,250.4 133.6,207.9 "/>
<polygon fill="none" stroke="#000000" stroke-miterlimit="10" points="158.2,36.7 211.5,129.1 264.9,221.5 158.2,221.5 51.4,221.5 
	104.8,129.1 "/>
<polygon fill="none" stroke="#000000" stroke-miterlimit="10" points="158.2,137.3 182.7,179.7 207.2,222.2 158.2,222.2 
	109.1,222.2 133.6,179.7 "/>
<polygon fill="none" stroke="#000000" stroke-miterlimit="10" points="129.9,345.7 184,376.8 238.2,407.9 184.2,439.3 130.1,470.6 
	130,408.2 "/>
<polygon fill="none" stroke="#000000" stroke-miterlimit="10" points="129.9,435.1 184,466.3 238.2,497.4 184.2,528.7 130.1,560.1 
	130,497.6 "/>
<polygon fill="none" stroke="#000000" stroke-miterlimit="10" points="192.3,345.7 161.2,399.9 130.1,454 98.8,400 67.4,346 
	129.9,345.8 "/>
<polygon fill="none" stroke="#000000" stroke-miterlimit="10" points="67.4,559.5 98.5,505.3 129.6,451.1 161,505.2 192.3,559.2 
	129.9,559.3 "/>
<polygon fill="none" stroke="#000000" stroke-miterlimit="10" points="138.2,657.7 185.7,685 233.2,712.3 185.8,739.8 138.4,767.3 
	138.3,712.5 "/>
<polygon fill="none" stroke="#000000" stroke-miterlimit="10" points="138.2,762.5 185.7,789.8 233.2,817.1 185.8,844.6 
	138.4,872.1 138.3,817.3 "/>
<polygon fill="none" stroke="#000000" stroke-miterlimit="10" points="175.1,657.7 120.9,688.8 66.8,719.9 120.8,751.3 174.8,782.6 
	175,720.2 "/>
<polygon fill="none" stroke="#000000" stroke-miterlimit="10" points="175.1,746.1 120.9,777.2 66.8,808.3 120.8,839.7 174.8,871 
	175,808.6 "/>
<polygon fill="none" stroke="#000000" stroke-miterlimit="10" points="68.7,702.9 122.8,734 177,765.1 123,796.4 68.9,827.8 
	68.8,765.3 "/>
<polygon fill="none" stroke="#000000" stroke-miterlimit="10" points="105.7,948.8 159.9,979.9 214.1,1011 160,1042.3 106,1073.7 
	105.9,1011.2 "/>
<polygon fill="none" stroke="#000000" stroke-miterlimit="10" points="105.7,1037.1 159.9,1068.2 214.1,1099.3 160,1130.7 
	106,1162.1 105.9,1099.6 "/>
<polygon fill="none" stroke="#000000" stroke-miterlimit="10" points="214.1,993.9 159.9,1025 105.7,1056.1 159.8,1087.5 
	213.8,1118.8 213.9,1056.3 "/>
<polygon fill="none" stroke="#000000" stroke-miterlimit="10" points="156.9,1248.8 194.8,1270.6 232.7,1292.3 194.9,1314.3 
	157.1,1336.2 157,1292.5 "/>
<polygon fill="none" stroke="#000000" stroke-miterlimit="10" points="96.6,1248.8 150.7,1279.9 204.9,1311 150.9,1342.3 
	96.8,1373.7 96.7,1311.2 "/>
<polygon fill="none" stroke="#000000" stroke-miterlimit="10" points="451.9,44.2 502.8,73.4 553.8,102.7 503,132.2 452.1,161.7 
	452,102.9 "/>
<polygon fill="none" stroke="#000000" stroke-miterlimit="10" points="552.7,153.7 509.7,178.5 466.6,203.2 509.5,228.1 
	552.5,253.1 552.6,203.4 "/>
<polygon fill="none" stroke="#000000" stroke-miterlimit="10" points="466.2,48.2 412.1,79.3 357.9,110.4 411.9,141.8 466,173.1 
	466.1,110.7 "/>
<polygon fill="none" stroke="#000000" stroke-miterlimit="10" points="466.2,136.6 412.1,167.7 357.9,198.8 411.9,230.2 466,261.5 
	466.1,199.1 "/>
<polygon fill="none" stroke="#000000" stroke-miterlimit="10" points="357.9,93.4 412.1,124.5 466.2,155.6 412.2,186.9 358.2,218.3 
	358.1,155.8 "/>
<polygon fill="none" stroke="#000000" stroke-miterlimit="10" points="451.9,145.7 502.8,175 553.8,204.2 503,233.7 452.1,263.2 
	452,204.5 "/>
<polygon fill="none" stroke="#000000" stroke-miterlimit="10" points="517.6,644.7 486.5,698.9 455.4,753.1 424.1,699 392.7,645 
	455.2,644.9 "/>
<polygon fill="none" stroke="#000000" stroke-miterlimit="10" points="392.7,858.5 423.8,804.3 454.9,750.2 486.3,804.2 
	517.6,858.2 455.2,858.4 "/>
<polygon fill="none" stroke="#000000" stroke-miterlimit="10" points="517.6,678.6 486.5,732.7 455.4,786.9 424.1,732.9 
	392.7,678.9 455.2,678.7 "/>
<polygon fill="none" stroke="#000000" stroke-miterlimit="10" points="517.6,828.3 486.5,774.1 455.4,720 424.1,774 392.7,828 
	455.2,828.1 "/>
<polygon fill="none" stroke="#000000" stroke-miterlimit="10" points="546.2,948.7 515.1,1002.8 484,1057 452.6,1003 421.3,949 
	483.7,948.8 "/>
<polygon fill="none" stroke="#000000" stroke-miterlimit="10" points="421.3,1162.4 452.4,1108.3 483.5,1054.1 514.8,1108.1 
	546.2,1162.2 483.7,1162.3 "/>
<polygon fill="none" stroke="#000000" stroke-miterlimit="10" points="546.2,982.5 515.1,1036.7 484,1090.8 452.6,1036.8 
	421.3,982.8 483.7,982.7 "/>
<polygon fill="none" stroke="#000000" stroke-miterlimit="10" points="546.2,1132.2 515.1,1078.1 484,1023.9 452.6,1077.9 
	421.3,1131.9 483.7,1132.1 "/>
<polygon fill="none" stroke="#000000" stroke-miterlimit="10" points="464.5,1162.3 433.4,1108.1 402.3,1054 370.9,1108 339.6,1162 
	402,1162.2 "/>
<polygon fill="none" stroke="#000000" stroke-miterlimit="10" points="522.6,336.6 491.5,390.8 460.4,444.9 429.1,390.9 
	397.7,336.9 460.2,336.8 "/>
<polygon fill="none" stroke="#000000" stroke-miterlimit="10" points="397.7,550.4 428.8,496.2 459.9,442.1 491.3,496.1 
	522.6,550.1 460.2,550.2 "/>
<polygon fill="none" stroke="#000000" stroke-miterlimit="10" points="365.7,549.5 412.8,467.6 459.8,385.6 507.3,467.4 
	554.7,549.1 460.2,549.3 "/>
<polygon fill="none" stroke="#000000" stroke-miterlimit="10" points="365.7,338.6 412.8,420.6 459.8,502.5 507.3,420.8 
	554.7,339.1 460.2,338.8 "/>
<polygon fill="none" stroke="#000000" stroke-miterlimit="10" points="369.5,544.8 369.7,440.2 369.9,335.6 460.4,388.1 
	550.9,440.5 460.2,492.7 "/>
<polygon fill="none" stroke="#000000" stroke-miterlimit="10" points="550.9,549.5 550.7,444.9 550.5,340.3 460,392.8 369.5,445.2 
	460.2,497.4 "/>
<polygon fill="none" stroke="#000000" stroke-miterlimit="10" points="1150.5,322.2 1119.4,376.4 1088.3,430.6 1057,376.5 
	1025.6,322.5 1088.1,322.4 "/>
<polygon fill="none" stroke="#000000" stroke-miterlimit="10" points="1111.8,322.2 1080.7,376.4 1049.6,430.6 1018.3,376.5 
	986.9,322.5 1049.4,322.4 "/>
<polygon fill="none" stroke="#000000" stroke-miterlimit="10" points="1201.7,322.2 1170.6,376.4 1139.5,430.6 1108.1,376.5 
	1076.8,322.5 1139.3,322.4 "/>
<polygon fill="none" stroke="#000000" stroke-miterlimit="10" points="1025.6,536 1056.7,481.8 1087.8,427.7 1119.2,481.7 
	1150.5,535.7 1088.1,535.9 "/>
<polygon fill="none" stroke="#000000" stroke-miterlimit="10" points="1150.5,356.1 1119.4,410.2 1088.3,464.4 1057,410.4 
	1025.6,356.4 1088.1,356.2 "/>
<polygon fill="none" stroke="#000000" stroke-miterlimit="10" points="1159.1,961.8 1128,1016 1096.9,1070.1 1065.5,1016.1 
	1034.1,962.1 1096.6,962 "/>
<polygon fill="none" stroke="#000000" stroke-miterlimit="10" points="1002.2,963.8 1049.3,1045.8 1096.4,1127.7 1143.8,1046 
	1191.2,964.3 1096.7,964 "/>
<polygon fill="none" stroke="#000000" stroke-miterlimit="10" points="1005.7,910 1097.2,962.6 1188.8,1015.2 1097.5,1068.2 
	1006.2,1121.2 1005.9,1015.6 "/>
<polygon fill="none" stroke="#000000" stroke-miterlimit="10" points="1188.8,910 1097.2,962.6 1005.7,1015.2 1097,1068.2 
	1188.3,1121.2 1188.6,1015.6 "/>
<polygon fill="none" stroke="#000000" stroke-miterlimit="10" points="1159,666.7 1127.9,720.9 1096.8,775.1 1065.4,721 1034.1,667 
	1096.5,666.9 "/>
<polygon fill="none" stroke="#000000" stroke-miterlimit="10" points="1002,665.4 1049.1,747.3 1096.2,829.3 1143.6,747.5 
	1191,665.8 1096.5,665.6 "/>
<polygon fill="none" stroke="#000000" stroke-miterlimit="10" points="1005,615.3 1096.5,667.9 1188.1,720.5 1096.8,773.5 
	1005.5,826.5 1005.2,720.9 "/>
<polygon fill="none" stroke="#000000" stroke-miterlimit="10" points="1188.1,615.3 1096.5,667.9 1005,720.5 1096.3,773.5 
	1187.6,826.5 1187.9,720.9 "/>
<polygon fill="none" stroke="#000000" stroke-miterlimit="10" points="1096.5,640.2 1149.9,732.6 1203.3,825 1096.5,825 989.8,825 
	1043.2,732.6 "/>
<polygon fill="none" stroke="#000000" stroke-miterlimit="10" points="1016.9,1258.6 1017.1,1327.8 1017.2,1396.9 1077,1362.2 
	1136.8,1327.6 1076.9,1293.1 "/>
<polygon fill="none" stroke="#000000" stroke-miterlimit="10" points="985.8,1240 986,1344.6 986.2,1449.2 1076.7,1396.8 
	1167.2,1344.3 1076.5,1292.2 "/>
<polygon fill="none" stroke="#000000" stroke-miterlimit="10" points="1136.1,1258.6 1135.9,1327.8 1135.8,1396.9 1076,1362.2 
	1016.2,1327.6 1076.1,1293.1 "/>
<polygon fill="none" stroke="#000000" stroke-miterlimit="10" points="1167.2,1240 1167,1344.6 1166.8,1449.2 1076.3,1396.8 
	985.8,1344.3 1076.5,1292.2 "/>
<polygon fill="none" stroke="#000000" stroke-miterlimit="10" points="501.2,1244.5 470.1,1298.7 439,1352.8 407.6,1298.8 
	376.3,1244.8 438.8,1244.6 "/>
<polygon fill="none" stroke="#000000" stroke-miterlimit="10" points="377.3,1244.6 424.4,1326.6 471.5,1408.5 518.9,1326.8 
	566.4,1245.1 471.9,1244.8 "/>
<polygon fill="none" stroke="#000000" stroke-miterlimit="10" points="375.5,1459.3 422.5,1377.4 469.6,1295.4 517,1377.1 
	564.5,1458.9 470,1459.1 "/>
<polygon fill="none" stroke="#000000" stroke-miterlimit="10" points="398.4,1289.6 452.6,1320.7 506.8,1351.8 452.7,1383.2 
	398.7,1414.5 398.6,1352.1 "/>
<polygon fill="none" stroke="#000000" stroke-miterlimit="10" points="705.3,254 705.4,184.8 705.5,115.7 765.4,150.4 825.2,185 
	765.2,219.5 "/>
<polygon fill="none" stroke="#000000" stroke-miterlimit="10" points="674.2,272.6 674.3,168 674.5,63.4 765,115.8 855.5,168.3 
	764.9,220.4 "/>
<polygon fill="none" stroke="#000000" stroke-miterlimit="10" points="824.4,254 824.3,184.8 824.2,115.7 764.4,150.4 704.5,185 
	764.5,219.5 "/>
<polygon fill="none" stroke="#000000" stroke-miterlimit="10" points="855.5,272.6 855.4,168 855.2,63.4 764.7,115.8 674.2,168.3 
	764.9,220.4 "/>
<polygon fill="none" stroke="#000000" stroke-miterlimit="10" points="750.5,382.7 803.9,475.2 857.3,567.6 750.5,567.6 
	643.8,567.6 697.2,475.2 "/>
<polygon fill="none" stroke="#000000" stroke-miterlimit="10" points="750.5,483.3 775.1,525.8 799.6,568.3 750.5,568.3 
	701.5,568.3 726,525.8 "/>
<polygon fill="none" stroke="#000000" stroke-miterlimit="10" points="784.8,543.4 838.2,451 891.5,358.5 784.8,358.5 678.1,358.5 
	731.4,451 "/>
<polygon fill="none" stroke="#000000" stroke-miterlimit="10" points="784.8,442.8 809.3,400.3 833.9,357.9 784.8,357.9 
	735.7,357.9 760.3,400.3 "/>
<polygon fill="none" stroke="#000000" stroke-miterlimit="10" points="1483.3,747.6 1452.1,801.7 1421,855.9 1389.7,801.9 
	1358.3,747.9 1420.8,747.7 "/>
<polygon fill="none" stroke="#000000" stroke-miterlimit="10" points="1326.4,749.6 1373.5,831.5 1420.6,913.5 1468,831.8 
	1515.4,750 1420.9,749.8 "/>
<polygon fill="none" stroke="#000000" stroke-miterlimit="10" points="1483.3,960.5 1452.1,906.3 1421,852.2 1389.7,906.2 
	1358.3,960.2 1420.8,960.4 "/>
<polygon fill="none" stroke="#000000" stroke-miterlimit="10" points="1358.3,915.2 1389.4,861.1 1420.6,806.9 1451.9,860.9 
	1483.3,915 1420.8,915.1 "/>
<polygon fill="none" stroke="#000000" stroke-miterlimit="10" points="760.1,683.9 814.3,715 868.5,746.1 814.4,777.5 760.4,808.8 
	760.3,746.3 "/>
<polygon fill="none" stroke="#000000" stroke-miterlimit="10" points="760.1,772.3 814.3,803.4 868.5,834.5 814.4,865.8 
	760.4,897.2 760.3,834.7 "/>
<polygon fill="none" stroke="#000000" stroke-miterlimit="10" points="868.5,729 814.3,760.1 760.1,791.2 814.1,822.6 868.2,853.9 
	868.3,791.5 "/>
<polygon fill="none" stroke="#000000" stroke-miterlimit="10" points="770.7,683.9 716.5,715 662.3,746.1 716.4,777.5 770.4,808.8 
	770.5,746.3 "/>
<polygon fill="none" stroke="#000000" stroke-miterlimit="10" points="770.7,772.3 716.5,803.4 662.3,834.5 716.4,865.8 
	770.4,897.2 770.5,834.7 "/>
<polygon fill="none" stroke="#000000" stroke-miterlimit="10" points="662.3,729 716.5,760.1 770.7,791.2 716.6,822.6 662.6,853.9 
	662.5,791.5 "/>
<polygon fill="none" stroke="#000000" stroke-miterlimit="10" points="748,1253.9 802.1,1285.1 856.3,1316.2 802.3,1347.5 
	748.2,1378.9 748.1,1316.4 "/>
<polygon fill="none" stroke="#000000" stroke-miterlimit="10" points="856.3,1299.1 802.1,1330.2 748,1361.3 802,1392.6 856,1424 
	856.1,1361.5 "/>
<polygon fill="none" stroke="#000000" stroke-miterlimit="10" points="758.5,1253.9 704.3,1285.1 650.2,1316.2 704.2,1347.5 
	758.2,1378.9 758.3,1316.4 "/>
<polygon fill="none" stroke="#000000" stroke-miterlimit="10" points="650.2,1299.1 704.3,1330.2 758.5,1361.3 704.5,1392.6 
	650.4,1424 650.3,1361.5 "/>
<polygon fill="none" stroke="#000000" stroke-miterlimit="10" points="755.1,973.4 798.2,998.1 841.2,1022.8 798.3,1047.8 
	755.3,1072.7 755.2,1023 "/>
<polygon fill="none" stroke="#000000" stroke-miterlimit="10" points="841.2,1009.5 798.2,1034.3 755.1,1059 798,1083.9 841,1108.9 
	841.1,1059.2 "/>
<polygon fill="none" stroke="#000000" stroke-miterlimit="10" points="755.1,1044.5 798.2,1069.3 841.2,1094 798.3,1118.9 
	755.3,1143.9 755.2,1094.2 "/>
<polygon fill="none" stroke="#000000" stroke-miterlimit="10" points="806.3,971.7 775.1,1025.8 744,1080 712.7,1026 681.3,972 
	743.8,971.8 "/>
<polygon fill="none" stroke="#000000" stroke-miterlimit="10" points="681.3,1185.4 712.4,1131.3 743.6,1077.1 774.9,1131.1 
	806.3,1185.2 743.8,1185.3 "/>
<polygon fill="none" stroke="#000000" stroke-miterlimit="10" points="806.3,1005.5 775.1,1059.7 744,1113.9 712.7,1059.8 
	681.3,1005.8 743.8,1005.7 "/>
<polygon fill="none" stroke="#000000" stroke-miterlimit="10" points="1163.5,35.6 1100.8,34.7 1038,33.8 1068.6,88.6 1099.2,143.3 
	1131.3,89.5 "/>
<polygon fill="none" stroke="#000000" stroke-miterlimit="10" points="1046.6,19.3 1077.4,74 1108.2,128.6 1045.5,128 982.8,127.3 
	1014.7,73.3 "/>
<polygon fill="none" stroke="#000000" stroke-miterlimit="10" points="1117.6,112.9 1054.9,111.9 992.1,111 1022.7,165.8 
	1053.3,220.6 1085.4,166.7 "/>
<polygon fill="none" stroke="#000000" stroke-miterlimit="10" points="1113.9,64.1 1144.7,118.7 1175.5,173.4 1112.8,172.7 
	1050.1,172.1 1082,118.1 "/>
<polygon fill="none" stroke="#000000" stroke-miterlimit="10" points="1184.1,158.9 1121.4,158 1058.7,157.1 1089.2,211.8 
	1119.8,266.6 1152,212.8 "/>
<polygon fill="none" stroke="#000000" stroke-miterlimit="10" points="1068,141.3 1098.8,196 1129.6,250.6 1066.9,250 1004.2,249.3 
	1036.1,195.3 "/>
<polygon fill="none" stroke="#000000" stroke-miterlimit="10" points="1509.7,1062.8 1447,1061.8 1384.3,1060.9 1414.8,1115.7 
	1445.4,1170.5 1477.6,1116.6 "/>
<polygon fill="none" stroke="#000000" stroke-miterlimit="10" points="1392.9,1046.4 1423.7,1101.1 1454.5,1155.7 1391.7,1155.1 
	1329,1154.5 1360.9,1100.5 "/>
<polygon fill="none" stroke="#000000" stroke-miterlimit="10" points="1530.4,1172.9 1467.6,1172 1404.9,1171 1435.5,1225.8 
	1466,1280.6 1498.2,1226.8 "/>
<polygon fill="none" stroke="#000000" stroke-miterlimit="10" points="1414.3,1155.3 1445.1,1209.9 1475.9,1264.6 1413.1,1263.9 
	1350.4,1263.3 1382.3,1209.3 "/>
</svg>
