<?xml version="1.0" encoding="utf-8"?>
<!-- Generator: Adobe Illustrator 18.1.1, SVG Export Plug-In . SVG Version: 6.00 Build 0)  -->
<!DOCTYPE svg PUBLIC "-//W3C//DTD SVG 1.1//EN" "http://www.w3.org/Graphics/SVG/1.1/DTD/svg11.dtd">
<svg version="1.1" id="Layer_1" xmlns="http://www.w3.org/2000/svg" xmlns:xlink="http://www.w3.org/1999/xlink" x="0px" y="0px"
	 viewBox="0 0 279 270" enable-background="new 0 0 279 270" xml:space="preserve">
<polygon fill="none" stroke="#000000" stroke-width="10" stroke-miterlimit="10" points="178.3,26.3 147.2,80.4 116.1,134.6 
	84.7,80.6 53.4,26.6 115.8,26.4 "/>
<polygon fill="none" stroke="#000000" stroke-width="10" stroke-miterlimit="10" points="53.4,240 84.5,185.9 115.6,131.7 
	146.9,185.7 178.3,239.8 115.8,239.9 "/>
<polygon fill="none" stroke="#000000" stroke-width="10" stroke-miterlimit="10" points="54.4,26.4 101.5,108.4 148.5,190.3 
	196,108.6 243.4,26.8 148.9,26.6 "/>
<polygon fill="none" stroke="#000000" stroke-width="10" stroke-miterlimit="10" points="52.5,241.1 99.6,159.1 146.7,77.2 
	194.1,158.9 241.5,240.7 147,240.9 "/>
<polygon fill="none" stroke="#000000" stroke-width="10" stroke-miterlimit="10" points="75.5,71.4 129.7,102.5 183.8,133.6 
	129.8,165 75.8,196.3 75.7,133.9 "/>
</svg>
