<?xml version="1.0" encoding="utf-8"?>
<!-- Generator: Adobe Illustrator 18.1.1, SVG Export Plug-In . SVG Version: 6.00 Build 0)  -->
<!DOCTYPE svg PUBLIC "-//W3C//DTD SVG 1.1//EN" "http://www.w3.org/Graphics/SVG/1.1/DTD/svg11.dtd">
<svg version="1.1" id="Layer_1" xmlns="http://www.w3.org/2000/svg" xmlns:xlink="http://www.w3.org/1999/xlink" x="0px" y="0px"
	 viewBox="0 0 279 270" enable-background="new 0 0 279 270" xml:space="preserve">
<polygon fill="none" stroke="#000000" stroke-width="10" stroke-miterlimit="10" points="140,30.6 177.9,52.3 215.8,74.1 178,96.1 
	140.2,118 140.1,74.3 "/>
<polygon fill="none" stroke="#000000" stroke-width="10" stroke-miterlimit="10" points="140,93.2 177.9,115 215.8,136.7 178,158.7 
	140.2,180.6 140.1,136.9 "/>
<polygon fill="none" stroke="#000000" stroke-width="10" stroke-miterlimit="10" points="140,153.4 177.9,175.1 215.8,196.9 
	178,218.9 140.2,240.8 140.1,197.1 "/>
<polygon fill="none" stroke="#000000" stroke-width="10" stroke-miterlimit="10" points="79.7,30.6 133.8,61.7 188,92.8 134,124.1 
	79.9,155.5 79.8,93 "/>
<polygon fill="none" stroke="#000000" stroke-width="10" stroke-miterlimit="10" points="79.7,118.9 133.8,150 188,181.2 134,212.5 
	79.9,243.9 79.8,181.4 "/>
</svg>
