<?xml version="1.0" encoding="utf-8"?>
<!-- Generator: Adobe Illustrator 18.1.1, SVG Export Plug-In . SVG Version: 6.00 Build 0)  -->
<!DOCTYPE svg PUBLIC "-//W3C//DTD SVG 1.1//EN" "http://www.w3.org/Graphics/SVG/1.1/DTD/svg11.dtd">
<svg version="1.1" id="Layer_1" xmlns="http://www.w3.org/2000/svg" xmlns:xlink="http://www.w3.org/1999/xlink" x="0px" y="0px"
	 viewBox="0 0 279 270" enable-background="new 0 0 279 270" xml:space="preserve">
<polygon fill="none" stroke="#000000" stroke-width="10" stroke-miterlimit="10" points="203,81.6 171.9,135.7 140.8,189.9 
	109.4,135.9 78.1,81.9 140.5,81.7 "/>
<polygon fill="none" stroke="#000000" stroke-width="10" stroke-miterlimit="10" points="46,80.2 93.1,162.1 140.2,244.1 
	187.6,162.4 235.1,80.6 140.5,80.4 "/>
<polygon fill="none" stroke="#000000" stroke-width="10" stroke-miterlimit="10" points="49,30.2 140.5,82.7 232.1,135.3 
	140.8,188.3 49.5,241.3 49.2,135.7 "/>
<polygon fill="none" stroke="#000000" stroke-width="10" stroke-miterlimit="10" points="232.1,30.2 140.5,82.7 49,135.3 
	140.3,188.3 231.6,241.3 231.9,135.7 "/>
<polygon fill="none" stroke="#000000" stroke-width="10" stroke-miterlimit="10" points="140.5,55 193.9,147.4 247.3,239.9 
	140.5,239.9 33.8,239.9 87.2,147.4 "/>
</svg>
