<?xml version="1.0" encoding="utf-8"?>
<!-- Generator: Adobe Illustrator 18.1.1, SVG Export Plug-In . SVG Version: 6.00 Build 0)  -->
<!DOCTYPE svg PUBLIC "-//W3C//DTD SVG 1.1//EN" "http://www.w3.org/Graphics/SVG/1.1/DTD/svg11.dtd">
<svg version="1.1" id="Layer_1" xmlns="http://www.w3.org/2000/svg" xmlns:xlink="http://www.w3.org/1999/xlink" x="0px" y="0px"
	 viewBox="0 0 279 270" enable-background="new 0 0 279 270" xml:space="preserve">
<g>
	<polygon fill="none" stroke="#000000" stroke-width="10" stroke-miterlimit="10" points="196.6,31.1 165.5,85.3 134.4,139.4 
		103.1,85.4 71.7,31.4 134.2,31.2 	"/>
	<polygon fill="none" stroke="#000000" stroke-width="10" stroke-miterlimit="10" points="151.7,31.1 120.6,85.3 89.5,139.4 
		58.1,85.4 26.8,31.4 89.2,31.2 	"/>
	<polygon fill="none" stroke="#000000" stroke-width="10" stroke-miterlimit="10" points="241.6,31.1 210.4,85.3 179.3,139.4 
		148,85.4 116.6,31.4 179.1,31.2 	"/>
</g>
<polygon fill="none" stroke="#000000" stroke-width="10" stroke-miterlimit="10" points="71.7,244.9 102.8,190.7 133.9,136.5 
	165.3,190.6 196.6,244.6 134.2,244.7 "/>
<polygon fill="none" stroke="#000000" stroke-width="10" stroke-miterlimit="10" points="196.6,64.9 165.5,119.1 134.4,173.3 
	103.1,119.2 71.7,65.2 134.2,65.1 "/>
</svg>
