<?xml version="1.0" encoding="utf-8"?>
<!-- Generator: Adobe Illustrator 18.1.1, SVG Export Plug-In . SVG Version: 6.00 Build 0)  -->
<!DOCTYPE svg PUBLIC "-//W3C//DTD SVG 1.1//EN" "http://www.w3.org/Graphics/SVG/1.1/DTD/svg11.dtd">
<svg version="1.1" id="Layer_1" xmlns="http://www.w3.org/2000/svg" xmlns:xlink="http://www.w3.org/1999/xlink" x="0px" y="0px"
	 viewBox="0 0 279 270" enable-background="new 0 0 279 270" xml:space="preserve">
<polygon fill="none" stroke="#000000" stroke-width="10" stroke-miterlimit="10" points="199.7,27.5 168.6,81.6 137.5,135.8 
	106.2,81.8 74.8,27.8 137.3,27.6 "/>
<polygon fill="none" stroke="#000000" stroke-width="10" stroke-miterlimit="10" points="74.8,241.2 105.9,187.1 137,132.9 
	168.4,186.9 199.7,241 137.3,241.1 "/>
<polygon fill="none" stroke="#000000" stroke-width="10" stroke-miterlimit="10" points="42.8,240.4 89.8,158.5 136.9,76.5 
	184.3,158.2 231.8,240 137.3,240.2 "/>
<polygon fill="none" stroke="#000000" stroke-width="10" stroke-miterlimit="10" points="42.8,29.5 89.8,111.4 136.9,193.4 
	184.3,111.7 231.8,29.9 137.3,29.7 "/>
<polygon fill="none" stroke="#000000" stroke-width="10" stroke-miterlimit="10" points="46.6,235.7 46.8,131.1 46.9,26.5 
	137.4,78.9 227.9,131.4 137.3,183.6 "/>
<polygon fill="none" stroke="#000000" stroke-width="10" stroke-miterlimit="10" points="227.9,240.4 227.8,135.8 227.6,31.2 
	137.1,83.6 46.6,136.1 137.3,188.3 "/>
</svg>
