<?xml version="1.0" encoding="utf-8"?>
<!-- Generator: Adobe Illustrator 18.1.1, SVG Export Plug-In . SVG Version: 6.00 Build 0)  -->
<!DOCTYPE svg PUBLIC "-//W3C//DTD SVG 1.1//EN" "http://www.w3.org/Graphics/SVG/1.1/DTD/svg11.dtd">
<svg version="1.1" id="Layer_1" xmlns="http://www.w3.org/2000/svg" xmlns:xlink="http://www.w3.org/1999/xlink" x="0px" y="0px"
	 viewBox="0 0 279 270" enable-background="new 0 0 279 270" xml:space="preserve">
<polygon fill="none" stroke="#000000" stroke-width="10" stroke-miterlimit="10" points="129.1,28.2 172.2,52.9 215.3,77.6 
	172.3,102.6 129.3,127.5 129.2,77.8 "/>
<polygon fill="none" stroke="#000000" stroke-width="10" stroke-miterlimit="10" points="215.3,64.3 172.2,89.1 129.1,113.8 
	172.1,138.7 215.1,163.7 215.2,114 "/>
<polygon fill="none" stroke="#000000" stroke-width="10" stroke-miterlimit="10" points="129.1,99.3 172.2,124.1 215.3,148.8 
	172.3,173.7 129.3,198.7 129.2,149 "/>
<polygon fill="none" stroke="#000000" stroke-width="10" stroke-miterlimit="10" points="180.3,26.5 149.2,80.6 118.1,134.8 
	86.7,80.8 55.4,26.8 117.8,26.6 "/>
<polygon fill="none" stroke="#000000" stroke-width="10" stroke-miterlimit="10" points="55.4,240.3 86.5,186.1 117.6,131.9 
	148.9,185.9 180.3,240 117.8,240.1 "/>
<polygon fill="none" stroke="#000000" stroke-width="10" stroke-miterlimit="10" points="180.3,60.3 149.2,114.5 118.1,168.7 
	86.7,114.6 55.4,60.6 117.8,60.5 "/>
</svg>
