<?xml version="1.0" encoding="utf-8"?>
<!-- Generator: Adobe Illustrator 18.1.1, SVG Export Plug-In . SVG Version: 6.00 Build 0)  -->
<!DOCTYPE svg PUBLIC "-//W3C//DTD SVG 1.1//EN" "http://www.w3.org/Graphics/SVG/1.1/DTD/svg11.dtd">
<svg version="1.1" id="Layer_1" xmlns="http://www.w3.org/2000/svg" xmlns:xlink="http://www.w3.org/1999/xlink" x="0px" y="0px"
	 viewBox="0 0 279 270" enable-background="new 0 0 279 270" xml:space="preserve">
<polygon fill="none" stroke="#000000" stroke-width="10" stroke-miterlimit="10" points="121.3,30.6 168.8,57.8 216.3,85.1 
	168.9,112.6 121.5,140.1 121.4,85.3 "/>
<polygon fill="none" stroke="#000000" stroke-width="10" stroke-miterlimit="10" points="121.3,135.4 168.8,162.6 216.3,189.9 
	168.9,217.4 121.5,244.9 121.4,190.1 "/>
<polygon fill="none" stroke="#000000" stroke-width="10" stroke-miterlimit="10" points="158.2,30.6 104,61.7 49.9,92.8 
	103.9,124.1 157.9,155.5 158.1,93 "/>
<polygon fill="none" stroke="#000000" stroke-width="10" stroke-miterlimit="10" points="158.2,118.9 104,150 49.9,181.2 
	103.9,212.5 157.9,243.9 158.1,181.4 "/>
<polygon fill="none" stroke="#000000" stroke-width="10" stroke-miterlimit="10" points="51.8,75.7 105.9,106.8 160.1,137.9 
	106.1,169.3 52,200.6 51.9,138.1 "/>
</svg>
