<?xml version="1.0" encoding="utf-8"?>
<!-- Generator: Adobe Illustrator 18.1.1, SVG Export Plug-In . SVG Version: 6.00 Build 0)  -->
<!DOCTYPE svg PUBLIC "-//W3C//DTD SVG 1.1//EN" "http://www.w3.org/Graphics/SVG/1.1/DTD/svg11.dtd">
<svg version="1.1" id="Layer_1" xmlns="http://www.w3.org/2000/svg" xmlns:xlink="http://www.w3.org/1999/xlink" x="0px" y="0px"
	 viewBox="0 0 279 270" enable-background="new 0 0 279 270" xml:space="preserve">
<polygon fill="none" stroke="#000000" stroke-width="10" stroke-miterlimit="10" points="128.9,26.1 179.9,55.3 230.9,84.6 
	180,114.1 129.2,143.6 129.1,84.8 "/>
<polygon fill="none" stroke="#000000" stroke-width="10" stroke-miterlimit="10" points="229.8,135.6 186.7,160.4 143.6,185.1 
	186.6,210 229.6,235 229.7,185.3 "/>
<polygon fill="none" stroke="#000000" stroke-width="10" stroke-miterlimit="10" points="143.3,30.1 89.1,61.2 35,92.3 89,123.7 
	143,155 143.2,92.6 "/>
<polygon fill="none" stroke="#000000" stroke-width="10" stroke-miterlimit="10" points="143.3,118.5 89.1,149.6 35,180.7 89,212.1 
	143,243.4 143.2,181 "/>
<polygon fill="none" stroke="#000000" stroke-width="10" stroke-miterlimit="10" points="35,75.2 89.1,106.4 143.3,137.5 
	89.3,168.8 35.3,200.2 35.1,137.7 "/>
<polygon fill="none" stroke="#000000" stroke-width="10" stroke-miterlimit="10" points="128.9,127.6 179.9,156.9 230.9,186.1 
	180,215.6 129.2,245.1 129.1,186.4 "/>
</svg>
